<svg xmlns="http://www.w3.org/2000/svg" width="256" height="256" viewBox="0 0 256 256">
  <defs>
    <linearGradient id="g" x1="0" x2="1" y1="0" y2="1">
      <stop offset="0" stop-color="#8128ff"/>
      <stop offset="1" stop-color="#a05bff"/>
    </linearGradient>
  </defs>
  <rect width="256" height="256" rx="48" fill="url(#g)"/>
  <g fill="#fff" opacity=".95">
    <path d="M32 108c0-4.3 2.5-8.2 6.4-10l85.5-40.2a24 24 0 0 1 19.3 0l85.4 40.2c3.9 1.8 6.4 5.7 6.4 10s-2.5 8.2-6.4 10l-26.5 12.5c-4.9 2.3-10.7.2-13-4.7-2.3-4.9-.2-10.7 4.7-13l7.5-3.5-67.7-31.9c-1.5-.7-3.2-.7-4.7 0L56.6 109.3l25.3 12c4.9 2.3 7 8.1 4.7 13-2.3 4.9-8.1 7-13 4.7L38.4 118c-3.9-1.8-6.4-5.7-6.4-10Z"/>
    <path d="M201 128.5c5.5 0 10 4.5 10 10v20c0 20.7-36.6 37.5-83 37.5S45 179.2 45 158.5v-20c0-5.5 4.5-10 10-10s10 4.5 10 10v20c0 9.8 25.9 21.5 63 21.5s63-11.7 63-21.5v-20c0-5.5 4.5-10 10-10Z"/>
  </g>
</svg>

